<?xml version="1.0" encoding="utf-8"?>
<!-- Generator: Adobe Illustrator 16.0.3, SVG Export Plug-In . SVG Version: 6.00 Build 0)  -->
<!DOCTYPE svg PUBLIC "-//W3C//DTD SVG 1.1//EN" "http://www.w3.org/Graphics/SVG/1.1/DTD/svg11.dtd">
<svg version="1.1" id="Layer_1" xmlns="http://www.w3.org/2000/svg" xmlns:xlink="http://www.w3.org/1999/xlink" x="0px" y="0px"
	 width="499.999px" height="107.021px" viewBox="0 0 499.999 107.021" enable-background="new 0 0 499.999 107.021"
	 xml:space="preserve">
<g>
	<path fill="#231F20" d="M474.007,54.355c-14.817,0-25.992,11.322-25.992,26.333c0,15.012,11.175,26.333,25.992,26.333
		s25.992-11.321,25.992-26.333C499.999,65.678,488.824,54.355,474.007,54.355z M474.007,97.569c-9.327,0-15.836-6.938-15.836-16.881
		c0-9.94,6.509-16.884,15.836-16.884c9.322,0,15.835,6.943,15.835,16.884C489.842,90.632,483.329,97.569,474.007,97.569z"/>
	<rect x="432.586" y="55.185" fill="#231F20" width="10.604" height="51.008"/>
	<path fill="#231F20" d="M402.35,55.185h-20.262v51.008h20.262c15.439,0,25.412-10.01,25.412-25.504
		C427.762,65.196,417.789,55.185,402.35,55.185z M401.933,97.021h-9.882V64.359h9.882c9.902,0,15.587,5.951,15.587,16.329
		C417.52,91.069,411.835,97.021,401.933,97.021z"/>
	<path fill="#231F20" d="M365.006,55.235h-0.025v28.664c0,8.816-4.122,13.67-11.603,13.67c-9.592,0-11.606-7.432-11.606-13.67
		V55.235h-0.021v-0.053h-9.953V84.47c0,13.698,8.473,22.552,21.58,22.552c13.108,0,21.575-8.854,21.575-22.552V55.183h-9.947V55.235
		z"/>
	<polygon fill="#231F20" points="288.118,64.253 288.153,64.253 288.153,64.288 303.099,64.288 303.099,106.192 313.062,106.192 
		313.062,64.288 328.002,64.288 328.002,64.253 328.042,64.253 328.042,55.185 288.118,55.185 	"/>
	<path fill="#231F20" d="M270.277,74.913l-4.742-0.702c-1.318-0.196-3.15-0.639-4.493-1.636c-1.049-0.781-1.797-1.898-1.797-3.499
		c0-2.62,2.819-5.269,8.203-5.269c4.33,0,7.999,1.845,10.604,5.335l1.119,1.501l0.667-0.607l6.396-5.854l-0.805-1.176
		c-3.785-5.495-10.314-8.65-17.916-8.65c-5.45,0-10.111,1.531-13.495,4.432c-3.221,2.759-4.996,6.555-4.996,10.687
		c0,7.557,5.606,12.935,15.004,14.396l4.667,0.702c2.691,0.407,4.722,1.122,6.08,2.135c1.344,1.01,2.021,2.317,2.021,3.915
		c0,4.222-3.781,6.948-9.638,6.948c-7.495,0-11.724-4.495-13.942-8.266l-1.033-1.756l-0.033,0.03l-0.008-0.013L244.8,93.97
		l0.735,1.181c3.358,5.417,9.822,11.871,21.551,11.871s19.922-6.852,19.922-16.659C287.009,82.063,281.07,76.577,270.277,74.913z"/>
	<path fill="#231F20" d="M242.675,70.52c0-9.315-6.984-15.335-17.791-15.335h-22.046v51.008h10.021v-0.051h0.015V85.858h8.149
		l16.258,20.283h0.023l0.042,0.051h12.429l-17.533-21.453C238.888,82.576,242.675,77.437,242.675,70.52z M227.786,76.404
		c-1.011,0.254-2.196,0.382-3.552,0.382h-11.36V64.288h11.34c5.447,0,8.096,2.046,8.096,6.254
		C232.31,73.691,230.823,75.631,227.786,76.404z"/>
	<path fill="#231F20" d="M173.425,54.355c-14.819,0-25.997,11.322-25.997,26.333c0,15.012,11.178,26.333,25.997,26.333
		c14.818,0,25.992-11.321,25.992-26.333C199.417,65.678,188.243,54.355,173.425,54.355z M173.425,97.569
		c-9.325,0-15.837-6.938-15.837-16.881c0-9.94,6.512-16.884,15.837-16.884c9.326,0,15.837,6.943,15.837,16.884
		C189.262,90.632,182.751,97.569,173.425,97.569z"/>
	<polygon fill="#231F20" points="149.609,64.253 149.65,64.253 149.65,55.183 109.722,55.183 109.722,64.253 109.762,64.253 
		109.762,64.288 124.705,64.288 124.705,106.192 134.669,106.192 134.669,64.288 149.609,64.288 	"/>
	<path fill="#231F20" d="M85.612,54.355c-14.819,0-25.994,11.322-25.994,26.333c0,15.012,11.174,26.333,25.994,26.333
		c14.817,0,25.992-11.321,25.992-26.333C111.604,65.678,100.43,54.355,85.612,54.355z M85.612,97.569
		c-9.325,0-15.837-6.938-15.837-16.881c0-9.94,6.512-16.884,15.837-16.884c9.323,0,15.836,6.943,15.836,16.884
		C101.449,90.632,94.936,97.569,85.612,97.569z"/>
	<polygon fill="#231F20" points="43.941,55.235 43.937,55.235 27.609,92.288 11.278,55.235 11.275,55.235 11.255,55.183 0,55.183 
		0,106.192 9.91,106.192 9.91,106.142 9.939,106.142 9.939,74.929 23.513,106.192 31.706,106.192 45.283,74.929 45.283,106.142 
		45.306,106.142 45.306,106.192 55.216,106.192 55.216,55.183 43.964,55.183 	"/>
	<rect x="298.85" y="0.001" fill="#231F20" width="10.604" height="51.007"/>
	<path fill="#231F20" d="M256.146,51.01l0.021-0.052h0.021l4.65-11.452h21.271l4.722,11.452h0.021l0.021,0.052h10.62L276.414,0.001
		h-9.75L245.515,51.01H256.146z M271.534,13.431l6.915,16.997h-13.876L271.534,13.431z"/>
	<path fill="#231F20" d="M248.511,25.505C248.511,10.01,238.534,0,223.101,0h-20.267v51.01h20.267
		C238.534,51.01,248.511,40.998,248.511,25.505z M212.797,41.835V9.173h9.879c9.906,0,15.586,5.953,15.586,16.332
		c0,10.378-5.68,16.33-15.586,16.33H212.797z"/>
	<polygon fill="#231F20" points="159.963,50.959 159.986,50.959 159.986,17.238 187.048,50.813 187.203,51.011 195.486,51.011 
		195.486,0 185.55,0 185.55,0.052 185.527,0.052 185.527,33.769 158.465,0.196 158.306,0 150.024,0 150.024,51.011 159.963,51.011 	
		"/>
	<path fill="#231F20" d="M121.311,51.836c13.109,0,21.577-8.851,21.577-22.551V0.001h-9.948v0.047h-0.023v28.67
		c0,8.813-4.121,13.667-11.606,13.667c-9.59,0-11.604-7.433-11.604-13.667V0.048h-0.021V0.001h-9.948v29.285
		C99.738,42.985,108.205,51.836,121.311,51.836z"/>
	<polygon fill="#231F20" points="67.367,29.45 67.367,51.01 77.421,51.01 77.421,29.381 96.085,2.51 97.77,0 86.106,0 86.07,0.052 
		86.056,0.052 76.547,13.613 72.397,19.52 67.656,12.736 58.803,0.052 58.792,0.052 58.756,0 47.119,0 48.776,2.514 	"/>
	<polygon fill="#231F20" points="9.944,50.959 9.969,50.959 9.969,29.83 34.522,29.83 34.522,50.959 34.546,50.959 34.546,51.008 
		44.485,51.008 44.485,0 34.546,0 34.546,0.052 34.522,0.052 34.522,20.758 9.969,20.758 9.969,0.052 9.944,0.052 9.944,0 0.003,0 
		0.003,51.008 9.944,51.008 	"/>
</g>
</svg>
